<svg width="178" height="43" viewBox="0 0 178 43" fill="none" xmlns="http://www.w3.org/2000/svg">
<path d="M167.071 13.7319V17.1111H170.489V19.2161H167.071V27.7979C167.071 29.1481 167.437 29.8564 168.51 29.8564C168.99 29.8564 170.263 29.5565 170.515 29.4875L170.56 31.6389C170.149 31.7994 168.51 32.1444 167.619 32.1444C166.591 32.1444 165.722 31.8008 165.197 31.2292C164.603 30.5885 164.329 29.5818 164.329 28.1175V19.2161H162.271V17.1111H164.329V14.3965L167.07 13.7333L167.071 13.7319Z" fill="white"/>
<path d="M155.598 32.1454C153.975 32.1454 152.17 31.685 150.889 30.9444L152.256 28.5804C152.974 28.9957 154.286 29.4139 155.598 29.4139C156.669 29.4139 157.498 29.1731 157.933 28.7367C158.185 28.4846 158.306 28.1608 158.303 27.7482C158.3 27.2174 158.298 26.5571 156.115 25.7841C155.087 25.4194 151.959 24.3113 151.976 21.3911C151.99 18.8201 154.081 17.0249 157.059 17.0249C159.144 17.0249 160.709 17.7979 161.139 18.0344L159.821 20.4266C159.232 20.1028 158.198 19.755 157.059 19.755C155.919 19.755 154.714 20.1887 154.707 21.4052C154.706 21.6727 154.702 22.3838 157.028 23.2074C158.886 23.865 161.021 24.9745 161.035 27.7328C161.04 28.8775 160.636 29.8898 159.869 30.6614C158.904 31.6301 157.427 32.1426 155.598 32.1426V32.1454Z" fill="white"/>
<path d="M147.551 19.307C146.087 17.8385 144.315 17.1035 142.24 17.1035C140.164 17.1035 138.404 17.8385 136.936 19.307C135.466 20.777 134.732 22.5497 134.732 24.6251C134.732 26.7005 135.466 28.4731 136.936 29.9431C138.404 31.4116 140.173 32.1466 142.24 32.1466C144.307 32.1466 146.087 31.4116 147.551 29.9431C149.015 28.4731 149.747 26.7005 149.747 24.6251C149.747 22.5497 149.015 20.777 147.551 19.307ZM145.571 27.9493C144.652 28.8646 143.541 29.3222 142.24 29.3222C140.939 29.3222 139.827 28.8646 138.909 27.9493C137.989 27.0356 137.529 25.9275 137.529 24.6251C137.529 23.3227 137.989 22.223 138.909 21.2994C139.827 20.3757 140.937 19.9139 142.24 19.9139C143.542 19.9139 144.652 20.3757 145.571 21.2994C146.491 22.223 146.95 23.3325 146.95 24.6251C146.95 25.9176 146.491 27.0356 145.571 27.9493Z" fill="white"/>
<path d="M130.92 10.6758V20.322H124.401V10.6758H121.67V31.7888H124.401V23.0535H130.92V31.7888H133.652V10.6758H130.92Z" fill="white"/>
<path d="M117.787 10.6758V19.1477C116.468 17.7834 114.933 17.1019 113.183 17.1019C111.106 17.1019 109.336 17.8369 107.872 19.3054C106.406 20.7754 105.674 22.548 105.674 24.6234C105.674 26.6988 106.406 28.4715 107.872 29.9415C109.336 31.41 111.106 32.145 113.183 32.145C114.933 32.145 116.468 31.4635 117.787 30.0992V31.7888H120.532V10.6758H117.787ZM117.787 25.6386C117.629 26.4834 117.203 27.2536 116.507 27.9477C115.592 28.8629 114.484 29.3205 113.183 29.3205C111.882 29.3205 110.769 28.8629 109.85 27.9477C108.931 27.0339 108.472 25.9258 108.472 24.6234C108.472 23.321 108.931 22.2214 109.85 21.2977C110.769 20.3741 111.88 19.9123 113.183 19.9123C114.485 19.9123 115.592 20.3741 116.507 21.2977C117.203 21.9933 117.629 22.7677 117.787 23.6209V25.6386Z" fill="white"/>
<path d="M101.805 18.3813V26.1535C101.805 27.9543 100.347 29.413 98.5457 29.413C96.7449 29.413 95.2862 27.9543 95.2862 26.1535V18.3813H92.5547V26.1535C92.5547 29.4623 95.2369 32.1446 98.5457 32.1446C101.855 32.1446 104.537 29.4623 104.537 26.1535V18.3813H101.805Z" fill="white"/>
<path d="M89.2169 19.307C87.7526 17.8385 85.9827 17.1035 83.9059 17.1035C81.8291 17.1035 80.0705 17.8385 78.602 19.307C77.1334 20.777 76.3984 22.5497 76.3984 24.6251C76.3984 26.7005 77.1334 28.4731 78.602 29.9431C80.0705 31.4116 81.839 32.1466 83.9059 32.1466C85.9728 32.1466 87.7526 31.4116 89.2169 29.9431C90.6826 28.4731 91.4148 26.7005 91.4148 24.6251C91.4148 22.5497 90.6826 20.777 89.2169 19.307ZM87.2386 27.9493C86.3192 28.8646 85.2083 29.3222 83.9059 29.3222C82.6035 29.3222 81.494 28.8646 80.5746 27.9493C79.6551 27.0356 79.1961 25.9275 79.1961 24.6251C79.1961 23.3227 79.6551 22.223 80.5746 21.2994C81.494 20.3757 82.6049 19.9139 83.9059 19.9139C85.2069 19.9139 86.3192 20.3757 87.2386 21.2994C88.1567 22.223 88.6171 23.3325 88.6171 24.6251C88.6171 25.9176 88.1567 27.0356 87.2386 27.9493Z" fill="white"/>
<path d="M72.5234 11.02V32.1457H75.2676V11.02H72.5234Z" fill="white"/>
<path d="M63.4568 29.4015C61.2477 29.4015 59.3596 28.6186 57.7896 27.0529C56.2197 25.4872 55.4341 23.5906 55.4341 21.3646C55.4341 19.1385 56.2197 17.2575 57.7896 15.6918C59.3596 14.1261 61.2477 13.3432 63.4568 13.3432C65.497 13.3432 67.4584 14.1782 69.3409 15.8495L71.3867 13.9895C68.8889 11.7113 66.2447 10.5723 63.4568 10.5723C60.4747 10.5723 57.9318 11.6269 55.8297 13.7389C53.7276 15.8495 52.6758 18.3923 52.6758 21.3646C52.6758 24.3369 53.7276 26.8896 55.8297 28.9917C57.9318 31.0939 60.4747 32.1457 63.4568 32.1457C66.2447 32.1457 68.8889 31.0066 71.3867 28.7284L69.3409 26.8938C67.4584 28.5651 65.497 29.4015 63.4568 29.4015Z" fill="white"/>
<path d="M28.3967 35.5252C32.4855 35.5252 36.5758 35.6153 40.6604 35.5012C45.0491 35.3787 48.1805 32.7584 49.1718 28.64C50.101 24.7807 48.2143 20.6074 44.2311 18.9107C42.0276 17.973 40.9012 16.5932 39.8578 14.5642C35.4733 6.03034 24.1558 4.58573 17.9071 11.7454C16.5174 13.3365 15.0967 14.4389 13.0903 15.2021C8.1961 17.0663 5.92641 21.6761 6.81345 27.156C7.55969 31.7616 11.5753 35.3013 16.5441 35.4787L28.3967 35.5252Z" fill="white"/>
<path d="M21.2383 16.4707V29.7594H22.9575V16.4707H21.2383Z" fill="#016DFC"/>
<path d="M32.6126 16.4707V21.8028C31.7819 20.9453 30.816 20.5159 29.7149 20.5159C28.4069 20.5159 27.2932 20.9777 26.3709 21.9028C25.4487 22.8278 24.9883 23.943 24.9883 25.2496C24.9883 26.5562 25.4487 27.6728 26.3709 28.5978C27.2932 29.5215 28.4069 29.9847 29.7149 29.9847C30.816 29.9847 31.7819 29.5553 32.6126 28.6964V29.7594H34.3402V16.4707H32.6126ZM32.6126 25.8888C32.5126 26.421 32.2451 26.9054 31.8072 27.3433C31.2314 27.9192 30.533 28.2064 29.7149 28.2064C28.8969 28.2064 28.1957 27.9192 27.617 27.3433C27.0383 26.7674 26.7497 26.069 26.7497 25.2496C26.7497 24.4301 27.0383 23.7388 27.617 23.1573C28.1957 22.5758 28.8941 22.2843 29.7149 22.2843C30.5358 22.2843 31.2314 22.5758 31.8072 23.1573C32.2451 23.5938 32.5126 24.0824 32.6126 24.6188V25.8888Z" fill="#016DFC"/>
</svg>
